<?xml version="1.0" encoding="utf-8"?>
<!DOCTYPE svg PUBLIC "-//W3C//DTD SVG 1.0//EN" "http://www.w3.org/TR/2001/REC-SVG-20010904/DTD/svg10.dtd">
<svg version="1.0" xmlns="http://www.w3.org/2000/svg" width="123px" height="117px" viewBox="0 0 123 117" preserveAspectRatio="xMidYMid meet">
 <g fill="#000000">
  <path d="M47.15 109.15 c-0.40 -0.15 -0.65 -1.25 -0.65 -2.90 0 -2.60 0.10 -2.80 2.70 -5.45 1.45 -1.50 2.55 -2.90 2.40 -3.05 -0.15 -0.15 -0.80 -0.25 -1.40 -0.25 -0.65 0 -1.25 -0.20 -1.40 -0.45 -0.15 -0.20 -0.90 -0.55 -1.65 -0.70 -0.80 -0.20 -2.65 -1.05 -4.15 -1.95 -2.60 -1.50 -3.05 -1.60 -8 -1.65 -6.20 -0.10 -9.15 -1.10 -13.60 -4.35 -3.30 -2.50 -4.40 -4.15 -4.40 -6.65 0 -1.60 0.20 -1.90 1.75 -2.55 0.95 -0.40 3.30 -0.70 5.25 -0.70 3.20 0 3.45 -0.10 3.05 -0.85 -1.40 -2.80 -3.55 -9.25 -3.55 -10.70 0 -0.55 -1.05 -1.60 -2.70 -2.65 -2.85 -1.85 -4.65 -4.25 -6.35 -8.85 -1.05 -2.70 -1.80 -10.45 -1.25 -12.65 0.30 -1.20 0.50 -1.30 3.05 -1.30 2.60 0 2.90 0.10 5.35 2.50 1.40 1.40 2.60 2.50 2.65 2.50 0.05 0 0.40 -0.95 0.75 -2.10 0.80 -2.70 2.40 -6.25 3.65 -8.05 0.80 -1.20 0.95 -2.20 0.90 -6.55 -0.05 -3 0.15 -5.75 0.50 -6.60 1.60 -4 3.40 -7.05 5.50 -9.25 2.05 -2.25 2.45 -2.45 4.55 -2.45 1.25 0 2.50 0.30 2.80 0.65 0.30 0.35 0.65 2.70 0.70 5.25 l0.15 4.55 1.75 -0.80 c3.20 -1.40 3.75 -1.60 7.35 -2.65 3.05 -0.85 3.80 -1.30 4.40 -2.55 1.70 -3.25 6.45 -6.35 12.05 -7.90 2.80 -0.75 10.35 -0.70 11.10 0.05 0.80 0.80 0.75 3.65 -0.10 5.30 -0.40 0.75 -1.50 2.15 -2.50 3.05 -1 0.95 -1.80 1.90 -1.80 2.10 0 0.15 1.05 0.70 2.40 1.20 1.30 0.45 3.80 1.65 5.60 2.60 3.10 1.70 3.55 1.80 8.85 1.90 5.05 0.15 5.85 0.30 8.85 1.70 1.80 0.85 4.50 2.75 6.05 4.15 2.70 2.45 2.80 2.60 2.65 4.85 l-0.15 2.30 -2.50 0.60 c-1.35 0.30 -3.70 0.60 -5.10 0.60 l-2.65 0.05 1.05 2.65 c1.15 2.80 2.25 6.30 2.70 8.45 0.15 0.95 1 1.85 2.40 2.75 2.80 1.75 4.10 3.30 5.95 7.15 1.50 3.10 1.60 3.55 1.60 9.50 l0.05 6.25 -2.65 0.15 c-2.55 0.15 -2.70 0.10 -5.25 -2.35 -2.60 -2.45 -3.35 -2.70 -3.35 -1.10 0 0.40 -1.05 2.90 -2.35 5.55 -2.25 4.65 -2.30 4.85 -2.40 10 -0.05 3 -0.35 5.90 -0.75 6.75 -0.35 0.85 -0.85 2.05 -1.20 2.75 -0.75 1.80 -4.65 6.85 -5.95 7.75 -0.60 0.40 -1.95 0.75 -3 0.75 -1.70 0 -2 -0.20 -2.65 -1.75 -0.40 -0.95 -0.70 -3.30 -0.70 -5.30 0 -1.95 -0.20 -3.45 -0.40 -3.35 -4.80 2 -8.75 3.40 -10.20 3.65 -1.45 0.20 -2.10 0.65 -2.70 1.85 -2.85 5.45 -10.05 8.90 -18.70 8.85 -2.05 0 -4.05 -0.15 -4.35 -0.30z m14.80 -16.15 c-0.45 -0.25 -1.80 -1.75 -3 -3.30 l-2.20 -2.85 -0.35 1.70 c-0.15 0.95 -0.45 2.20 -0.65 2.80 -0.30 0.95 -0.10 1.15 1.30 1.60 2.30 0.65 6 0.70 4.90 0.05z m20.55 -5.55 c1.50 -1 3.15 -2.30 3.65 -2.85 0.90 -0.95 0.85 -1 -3.25 -1.25 -2.30 -0.15 -4.65 -0.40 -5.25 -0.60 -1.05 -0.35 -1.15 -0.20 -1.15 1.40 0 1.65 1 4.70 1.80 5.45 0.40 0.40 0.50 0.40 4.20 -2.15z m-43.45 -12.20 c0.70 -4.60 1.50 -5.75 3.70 -5.75 1.65 0 1.70 -0.05 1.15 -1.25 -0.40 -0.90 -0.95 -1.25 -2 -1.25 -0.80 0 -1.85 -0.15 -2.30 -0.35 -0.65 -0.30 -1.70 0.45 -4.20 2.95 l-3.30 3.35 0.80 1.50 c0.50 0.85 1.85 2.95 3.10 4.65 l2.25 3.05 0.10 -1.70 c0.10 -0.95 0.40 -3.25 0.70 -5.20z m28.25 2.35 c1.65 -1.05 3.95 -3.05 5.15 -4.40 2.15 -2.40 5.70 -9.20 6.15 -11.75 0.25 -1.30 0.15 -1.30 -1.30 -0.90 -2.60 0.75 -7.85 0.55 -8.85 -0.35 -0.80 -0.70 -0.90 -0.70 -1.20 0.30 -0.20 0.60 -0.50 2.55 -0.65 4.40 l-0.35 3.35 -2.50 0 -2.50 0 0 -5 c0 -2.75 0.15 -5.85 0.35 -6.85 l0.35 -1.90 -2.15 0 c-1.35 0 -2.40 -0.30 -2.85 -0.80 -1.15 -1.40 -3.30 -2.25 -4.55 -1.75 -0.65 0.25 -1.95 0.70 -2.90 0.95 l-1.75 0.50 2.05 0.05 c1.35 0.05 2.35 0.40 2.95 1.05 0.70 0.80 1.55 1 3.85 1 l2.90 0 0 2.25 c0 2.60 -0.55 3.05 -4.30 3.50 -1.65 0.20 -3.15 0.05 -4.55 -0.45 -2.55 -0.90 -2.55 -0.80 -1.10 3.40 2.05 5.85 6.40 11.25 11.50 14.20 2.40 1.40 2.90 1.35 6.25 -0.80z m15.75 -5.65 c0.60 -0.30 3.75 -0.70 7.05 -0.85 l6 -0.35 0.60 -1.80 c0.90 -2.55 1.95 -7.75 1.75 -8.40 -0.10 -0.30 -1.60 0.60 -3.25 1.95 -3.05 2.50 -7.55 4.50 -10.15 4.50 -1.05 0 -1.45 0.40 -2.30 2.35 -0.55 1.30 -1.05 2.55 -1.15 2.75 -0.25 0.55 0.30 0.50 1.45 -0.15z m-45.45 -21 c2.90 -1.10 2.90 -1.10 2.90 -3.15 l0 -2.05 -4.60 0.05 -4.65 0.10 -0.45 1.40 c-0.25 0.80 -0.60 1.90 -0.85 2.45 -0.20 0.55 -0.50 1.70 -0.60 2.50 -0.15 0.85 -0.45 2.40 -0.65 3.50 l-0.35 2 3.15 -2.90 c2.10 -1.90 4.15 -3.20 6.10 -3.90z m36.95 3.50 c1.10 -0.80 2.05 -1 3.70 -0.85 2.90 0.20 2.35 -0.20 -1.60 -1.15 -3.20 -0.80 -3.40 -0.80 -5 0.15 -0.90 0.55 -1.90 1.45 -2.20 1.95 -0.45 0.85 -0.30 0.95 1.60 0.95 1.30 0 2.60 -0.40 3.50 -1.05z m-8.90 -6 l1.70 -1.60 -1.65 -2.20 c-0.95 -1.25 -1.70 -2.45 -1.70 -2.75 0 -0.40 -2.65 2.75 -3.65 4.45 -0.20 0.30 0.30 1.20 1.15 2.05 0.80 0.85 1.50 2.05 1.55 2.70 0 1.15 0 1.15 0.45 0.05 0.25 -0.60 1.20 -1.80 2.15 -2.70z m26 -1.20 l3.40 -3.25 -0.85 -1.60 c-0.45 -0.90 -1.85 -3.10 -3.15 -4.90 l-2.30 -3.25 -0.30 4.25 c-0.15 2.35 -0.70 5.70 -1.15 7.50 -0.85 3.05 -0.85 3.25 0 3.85 0.50 0.35 0.90 0.65 0.90 0.65 0.05 0 1.60 -1.45 3.45 -3.25z m-41.30 -1.55 c2.25 -1 2.55 -1.75 0.55 -1.35 -3.35 0.65 -4.15 1 -4.30 1.85 -0.20 1 0.70 0.85 3.75 -0.50z m30.15 0.60 c0 -0.70 -1.50 -1.35 -4.75 -2.05 -1.50 -0.30 -1.50 -0.30 -0.40 0.50 1.15 0.80 4.10 2.20 4.80 2.25 0.20 0 0.35 -0.30 0.35 -0.70z m-4.30 -14.65 c0 -4.60 -0.20 -5.90 -0.75 -6.05 -0.40 -0.10 -1.15 -0.35 -1.70 -0.55 -2.70 -1.10 -4.75 -1.55 -6.75 -1.55 l-2.20 0 1.80 1.90 c2.65 2.75 4.90 6.55 4.90 8.35 0 1.25 0.35 1.75 1.90 2.65 1 0.60 2.10 1.10 2.35 1.10 0.30 0 0.50 -2.25 0.45 -5.85z m-19.60 2.15 c-0.45 -0.25 -2.30 -1.90 -4.05 -3.70 l-3.20 -3.20 -2.05 1 c-1.15 0.55 -3.30 1.95 -4.80 3.15 l-2.70 2.20 4.20 0.30 c5.60 0.45 7.65 1 8.20 2.30 l0.50 1.05 2.35 -1.35 c1.95 -1.05 2.25 -1.40 1.55 -1.75z"/>
  <path d="M58.35 76.15 c-0.20 -0.15 -0.35 -1.25 -0.35 -2.45 0 -2.85 1.35 -3.70 5.85 -3.70 4.15 0.05 5.65 1 5.65 3.60 0 0.95 -0.25 1.95 -0.60 2.30 -0.65 0.65 -9.95 0.85 -10.55 0.25z"/>
 </g>
 <g fill="none" stroke="#fef7ff" stroke-width="0.5">
  <path d="M0 58.50 l0 -58.50 61.50 0 61.50 0 0 58.50 0 58.50 -61.50 0 -61.50 0 0 -58.50z m56.60 48.80 c5.80 -1.40 10.10 -4.30 12.10 -8.20 0.60 -1.20 1.25 -1.65 2.70 -1.85 2.35 -0.40 6.40 -1.95 10.80 -4.10 1.85 -0.95 3.50 -1.65 3.55 -1.55 0.10 0.10 -0.05 1.75 -0.35 3.70 -0.60 3.75 -0.30 6.45 0.80 7.95 0.65 0.90 0.75 0.90 1.95 0.10 1.40 -0.90 5.30 -5.85 6.20 -7.85 1.45 -3.25 1.85 -4.95 1.85 -8 0.05 -2.05 -0.20 -3.65 -0.60 -4.15 -0.55 -0.65 -0.45 -1.10 0.55 -2.70 2.85 -4.45 5.85 -11.70 5.85 -14.15 l0.05 -1.25 1.10 1.45 c0.60 0.80 2.40 2.75 3.95 4.40 2.15 2.25 3.10 2.95 4 2.80 1.10 -0.15 1.15 -0.30 1.10 -4.95 -0.05 -4.25 -0.25 -5.15 -1.60 -8 -1.85 -3.80 -3.15 -5.35 -5.95 -7.10 -1.40 -0.90 -2.20 -1.80 -2.40 -2.75 -0.60 -2.90 -2.40 -8 -4.05 -11.30 -0.95 -1.90 -1.60 -3.55 -1.45 -3.70 0.15 -0.15 1.45 0 2.95 0.35 3.25 0.75 8.70 -0.10 9.20 -1.35 0.40 -1.15 -4.80 -5.75 -8.65 -7.60 -2.70 -1.30 -3.90 -1.55 -7.20 -1.65 -2.55 -0.05 -4.20 0.15 -4.70 0.55 -0.60 0.55 -1.15 0.35 -3.15 -1 -2.65 -1.75 -10.75 -5.40 -12.10 -5.40 -2 -0.05 -2.25 -0.85 -0.50 -2 2.50 -1.75 5.40 -4.60 6.20 -6.15 1.10 -2.10 0.25 -2.85 -3.20 -2.85 -6.65 0 -14.50 3.95 -16.85 8.45 -0.60 1.25 -1.35 1.70 -4.40 2.55 -1.95 0.60 -4.05 1.25 -4.60 1.45 -4.10 1.75 -6.20 2.80 -7.45 3.70 l-1.45 1.05 0.40 -1.25 c0.25 -0.65 0.50 -3.35 0.60 -6 0.20 -3.90 0.05 -4.90 -0.60 -5.45 -1.10 -0.90 -2.70 -0.10 -4.90 2.60 -4.60 5.65 -6.50 12.45 -4.80 17.15 0.55 1.45 0.45 1.80 -0.90 3.80 -1.90 2.80 -2.95 5.15 -4.65 10.15 l-1.35 4 -0.90 -1.45 c-1.70 -2.75 -6.15 -6.75 -7.50 -6.75 -1.70 0 -2 1.65 -1.35 6.40 0.35 2.70 1.10 4.95 2.45 7.60 1.60 3.15 2.35 4.05 4.80 5.65 1.65 1.15 2.85 2.30 2.85 2.80 0 1.05 1.80 6.90 2.50 8.15 0.30 0.50 0.50 1.10 0.50 1.35 0 0.30 0.70 1.65 1.50 3.10 0.85 1.40 1.45 2.65 1.30 2.80 -0.10 0.10 -1.05 0 -2.15 -0.30 -2.70 -0.75 -6.35 -0.70 -8.40 0.15 -0.95 0.40 -1.75 0.90 -1.75 1.05 0 1.95 5.60 6.60 10 8.30 3.15 1.20 9.45 1.55 10.60 0.60 0.55 -0.50 1.35 -0.20 3.90 1.35 1.75 1.05 3.85 2.20 4.70 2.50 0.85 0.35 2 0.80 2.55 1 0.55 0.25 2.05 0.70 3.40 1.05 1.30 0.40 2.35 0.85 2.35 1 0 0.20 -1.10 1.20 -2.50 2.20 -4.25 3.15 -6.75 7.15 -4.85 7.90 1.15 0.50 5.10 0.30 7.95 -0.35z"/>
  <path d="M52 104.75 c0 -0.65 3.50 -3.30 5.80 -4.45 2.80 -1.35 7.70 -2.25 7.70 -1.40 0 1.10 -4.05 3.95 -7.10 5 -2.85 1 -6.40 1.50 -6.40 0.85z"/>
  <path d="M88 96.85 c0 -1.55 0.25 -2.95 0.50 -3.10 0.30 -0.15 0.50 -0.70 0.50 -1.20 0 -1.30 1.20 -3.55 3 -5.55 l1.55 -1.75 -0.25 3.55 c-0.20 2.85 -0.55 4.10 -2 6.55 -0.95 1.65 -2.10 3.30 -2.55 3.65 -0.65 0.55 -0.75 0.30 -0.75 -2.15z"/>
  <path d="M55.10 94.35 c-2.40 -0.55 -2.40 -0.55 -0.95 -4.85 1.50 -4.30 2 -6.45 1.70 -7.50 -0.15 -0.65 -0.05 -1 0.30 -0.85 0.60 0.20 0.80 0.55 2.30 3.85 1.10 2.40 4 5.70 7.30 8.35 l2 1.60 -5.25 -0.05 c-2.90 0 -6.25 -0.25 -7.40 -0.55z"/>
  <path d="M69.10 92.20 c-2.35 -1.15 -7.60 -6.25 -7.60 -7.30 0 -0.60 2.40 0.05 5.20 1.45 2.40 1.20 5.80 4.25 6.80 6.15 0.45 0.85 0.40 1 -0.65 1 -0.65 0 -2.30 -0.60 -3.75 -1.30z"/>
  <path d="M49.25 90.40 c0.15 -1.20 0.40 -2.80 0.55 -3.60 0.30 -1.95 -0.70 -7.05 -1.95 -9.65 -0.50 -1.20 -1.80 -3.10 -2.85 -4.25 -1.80 -2 -2 -2.10 -2.75 -1.35 -0.95 0.95 -2.20 6.15 -2.25 9.20 0 1.10 0.25 2.85 0.55 3.90 0.30 1.10 0.35 2.10 0.20 2.25 -1.05 1.05 -10.75 -11.80 -10.75 -14.20 0 -0.40 1.65 -2.35 3.70 -4.35 2 -1.95 3.90 -4.05 4.20 -4.55 0.45 -0.95 0.55 -0.90 2.15 0.40 1.55 1.30 2.05 1.40 4.10 0.55 0.60 -0.25 0.85 -0.10 0.85 0.45 0 1 2.30 5.65 4.90 9.95 2.70 4.40 3.40 7.10 2.60 10.45 -0.85 3.45 -2.35 6.90 -3 6.90 -0.30 0 -0.40 -0.80 -0.25 -2.10z"/>
  <path d="M76 89.65 c-0.90 -1.85 -1.15 -3.30 -1.15 -6.40 0 -4.25 -0.15 -3.95 3.80 -10.45 1 -1.60 2.30 -4.10 2.90 -5.55 1 -2.45 1.20 -2.65 2.25 -2.25 2.90 1.10 11.25 -3.90 14.55 -8.65 l1.40 -2 0.15 4.20 c0.20 4.90 -1.10 12 -2.50 13.65 -0.20 0.30 -2.95 0.50 -6 0.55 -5.30 0.05 -5.85 0.15 -8.95 1.65 -4.05 2 -6.40 4.25 -5.65 5.45 1.10 1.80 10.25 2.85 13.50 1.65 0.75 -0.30 1.45 -0.40 1.60 -0.25 0.55 0.50 -5.15 5.90 -8.85 8.30 -4.75 3.15 -5.60 3.15 -7.05 0.10z"/>
  <path d="M45.30 89.35 c-1.90 -2.85 -3.20 -12.25 -1.80 -13.10 1.35 -0.80 3.50 5.50 3.50 10.35 0 3.65 -0.55 4.55 -1.70 2.75z"/>
  <path d="M33 88.50 c-0.40 -0.25 -1.25 -0.50 -1.85 -0.50 -1.70 0 -8.10 -3.65 -8.15 -4.60 0 -0.65 4.60 -0.45 6.50 0.25 3.50 1.30 7 3.70 7 4.85 0 0.65 -2.55 0.65 -3.50 0z"/>
  <path d="M69.40 84.85 c-1.05 -0.60 -1.90 -1.20 -1.90 -1.35 0 -0.55 3.55 -2.50 4 -2.25 0.60 0.35 0.70 4.75 0.15 4.75 -0.25 -0.05 -1.25 -0.55 -2.25 -1.15z"/>
  <path d="M60.55 80.45 c-8.60 -4.80 -12.85 -11.85 -14.75 -24.55 l-0.60 -3.85 2.30 -0.55 c1.25 -0.30 2.75 -0.80 3.40 -1.05 2.50 -1 5.95 -0.20 7.55 1.75 0.85 1.05 2.35 1 2.75 0 0.35 -0.90 -2.80 -4.20 -4 -4.20 -1.05 0 -0.95 -0.25 2.05 -3.85 1.50 -1.85 3.05 -4.10 3.35 -5 0.35 -0.90 0.75 -1.65 0.90 -1.65 0.20 0 0.95 1.10 1.70 2.50 0.75 1.35 2.35 3.70 3.60 5.25 1.85 2.25 2.10 2.75 1.30 2.75 -1.20 0 -4.35 3.05 -5.25 5.15 -1.70 3.85 -2 5.20 -2.05 9.30 -0.05 4 0 4.30 0.95 4.30 0.75 0 1.05 -0.35 1.10 -1.50 0.60 -7.60 2.35 -12.20 5.20 -14.05 2.25 -1.40 3.50 -1.45 8.20 -0.25 l3.50 0.90 -0.05 1.95 c0 1.75 -0.45 4.40 -1.50 8.95 -0.15 0.85 -1.20 3.35 -2.25 5.65 -2.30 5 -6.55 9.50 -11.25 12 -1.70 0.85 -3.15 1.60 -3.25 1.60 -0.10 0 -1.40 -0.70 -2.90 -1.55z m6.95 -6.20 c0.55 -0.65 0.45 -0.95 -0.55 -1.65 -2.55 -1.80 -8.15 -0.60 -7.30 1.60 0.45 1.15 6.95 1.15 7.85 0.05z m-10.05 -15.45 c0.30 -0.20 0.55 -0.70 0.55 -1.10 0 -0.50 -0.70 -0.70 -2.90 -0.70 -2.35 0 -3.15 -0.20 -3.85 -1 -0.95 -1.10 -2.80 -1.20 -3.10 -0.20 -0.25 0.80 2 2.85 3.95 3.50 1.55 0.50 4.05 0.25 5.35 -0.50z m20.35 -0.85 c2.30 -2.15 0.85 -3.85 -1.75 -2 -1 0.75 -2.20 1.05 -3.90 1.05 -2.95 0 -3.45 0.35 -2.30 1.65 1.25 1.35 6.20 0.95 7.95 -0.70z"/>
  <path d="M81 78.50 c0 -0.60 2.15 -1.70 5.20 -2.75 3 -1.05 9.05 -0.85 9.05 0.25 0 1.45 -5.05 2.95 -9.85 3 -2.55 0 -4.40 -0.20 -4.40 -0.50z"/>
  <path d="M107.75 68.40 c-0.75 -0.90 -1.90 -2.75 -2.50 -4.15 -1.25 -2.70 -2.15 -7.75 -1.40 -7.75 1.95 0 6.15 8.25 6.15 12.05 0 1.85 -0.55 1.80 -2.25 -0.15z"/>
  <path d="M29 67.60 c0 -2.20 1.90 -5.50 4.85 -8.45 2.90 -3 3.85 -3.35 3.35 -1.25 -0.80 3.35 -4.05 8.20 -6.75 10.10 l-1.45 1.05 0 -1.45z"/>
  <path d="M27.15 57.65 c0.30 -5.10 0.65 -7.70 1.30 -9.40 0.25 -0.55 0.60 -1.65 0.85 -2.50 l0.45 -1.50 6.15 -0.05 6.10 -0.10 0 3.65 0 3.60 -2.95 1.10 c-3.10 1.10 -9.10 6.15 -10.50 8.75 -1.30 2.35 -1.65 1.45 -1.40 -3.55z"/>
  <path d="M41.50 61.50 c-0.30 -0.55 -0.50 -2.20 -0.40 -3.65 0.10 -2 0.35 -2.65 1.05 -2.75 0.75 -0.15 0.85 0.25 0.85 3.35 0 3.65 -0.55 4.80 -1.50 3.05z"/>
  <path d="M84.50 60.50 c-0.65 -2.35 -0.20 -5.50 0.75 -5.65 0.65 -0.15 0.95 5.90 0.30 7 -0.35 0.70 -0.55 0.45 -1.05 -1.35z"/>
  <path d="M21.90 59.15 c-0.75 -0.80 -1.85 -2.50 -2.55 -3.90 -1.15 -2.45 -2.65 -8.10 -2.20 -8.55 0.10 -0.10 0.75 0.25 1.45 0.80 1.95 1.50 5.40 9.10 5.40 11.90 0 1.45 -0.55 1.40 -2.10 -0.25z"/>
  <path d="M90 59.45 c0 -1.85 2.50 -6.10 5.15 -8.80 1.40 -1.45 2.75 -2.65 3 -2.65 0.85 0 -0.25 3.70 -1.85 6.25 -1.60 2.50 -5.15 6.25 -5.90 6.25 -0.25 0 -0.40 -0.45 -0.40 -1.05z"/>
  <path d="M86.65 52.20 c-2 -1.95 -2.05 -3.15 -0.60 -8.85 0.85 -3.30 1 -5 0.80 -8.70 -0.25 -4.40 -0.20 -4.60 0.65 -4.15 1.45 0.80 5.15 5.25 7.35 8.90 3.10 5.20 3.10 5.05 -0.40 8.10 -1.65 1.45 -3.55 3.50 -4.25 4.55 -0.65 1.10 -1.40 1.90 -1.60 1.90 -0.20 -0.05 -1.10 -0.85 -1.95 -1.75z"/>
  <path d="M45.10 46.40 c0.15 -2.60 0.15 -2.60 2.15 -3.05 3.90 -0.85 8.35 -2.40 10.30 -3.65 1.05 -0.65 1.95 -1.05 1.95 -0.80 0 1.35 -5.60 7.35 -7.75 8.30 -3.45 1.50 -4.35 1.80 -5.55 1.80 -1.20 0 -1.25 -0.10 -1.10 -2.60z"/>
  <path d="M76.75 47.80 c-1.35 -0.65 -3.25 -1.75 -4.15 -2.55 -1.70 -1.45 -4.85 -5.65 -4.50 -6.05 0.15 -0.10 1.65 0.50 3.35 1.30 1.75 0.85 4.40 1.85 5.95 2.25 4.45 1.20 4.50 1.20 4.85 2.75 0.80 3.60 -1 4.35 -5.50 2.30z"/>
  <path d="M32.90 41.45 c-1.40 -0.80 -1.10 -1.25 1.55 -2.40 2 -0.85 3.50 -1.05 7.40 -1.05 l4.90 0 -1.25 1 c-2.95 2.25 -10.45 3.70 -12.60 2.45z"/>
  <path d="M82.10 38.85 c-1.95 -4.15 -2.50 -11.65 -0.90 -12 0.25 -0.05 0.90 0.80 1.50 1.90 0.80 1.55 1.10 3.10 1.20 7.15 0.10 3.10 0 5.10 -0.30 5.10 -0.25 0 -0.95 -0.95 -1.50 -2.15z"/>
  <path d="M75.30 39.45 c-2.70 -1.10 -6.80 -3.40 -6.80 -3.80 0 -0.15 0.40 -0.55 0.85 -0.90 0.80 -0.60 0.70 -0.85 -0.90 -3.50 -1.65 -2.75 -6.50 -7.85 -7.90 -8.30 -0.40 -0.15 -0.55 -0.50 -0.40 -0.80 0.25 -0.40 2.05 -0.50 5.45 -0.35 4.60 0.20 6.60 0.55 9.65 1.70 0.55 0.25 1.40 0.55 1.95 0.70 0.85 0.30 0.90 0.70 0.60 4.45 -0.20 2.40 -0.10 5.10 0.20 6.60 1.15 5.10 1.15 5.25 0.45 5.20 -0.40 0 -1.80 -0.45 -3.15 -1z"/>
  <path d="M50.30 38.95 c1.20 -1.30 0.50 -2.50 -1.85 -3.15 -2.80 -0.75 -10.75 -0.95 -11.95 -0.30 -2.45 1.30 -1.50 -0.35 2.20 -3.80 2.35 -2.20 5.35 -4.40 7.55 -5.55 l3.65 -1.85 3.70 3.80 c2 2.10 4.40 4.15 5.30 4.60 1.85 0.95 1.95 1.35 0.75 2.40 -1.35 1.20 -8.55 4.90 -9.50 4.90 -0.70 0 -0.70 -0.10 0.15 -1.05z"/>
  <path d="M97.25 32.95 c-2.90 -1.15 -6.55 -3.55 -6.40 -4.20 0.30 -1.25 5.20 -0.50 8.40 1.25 3.75 2.15 5.25 3.15 5.25 3.55 0 0.80 -4.70 0.40 -7.25 -0.60z"/>
  <path d="M61.10 30.75 c-3.90 -1.80 -9.35 -7.75 -7.05 -7.75 2.15 0 8.80 4.75 11.40 8.15 0.60 0.75 0.55 0.85 -0.50 0.80 -0.65 0 -2.40 -0.55 -3.85 -1.20z"/>
  <path d="M33.70 28.20 c0.45 -3.85 3.90 -10.70 5.40 -10.70 1.40 0 -0.55 7.85 -2.75 10.90 -2.45 3.40 -3.10 3.35 -2.65 -0.20z"/>
  <path d="M61.50 18.15 c0 -0.45 1.80 -2.25 3.60 -3.60 2.20 -1.65 9.90 -3.40 9.90 -2.25 0 0.95 -4.90 4.30 -7.50 5.10 -2.70 0.85 -6 1.25 -6 0.75z"/>
 </g>
</svg>